<svg width="69" height="44" viewBox="0 0 69 44" fill="none" xmlns="http://www.w3.org/2000/svg">
<g filter="url(#filter0_dii_361_788)">
<rect x="10" width="49" height="24" rx="12" fill="#00AE84"/>
</g>
<g filter="url(#filter1_ii_361_788)">
<path d="M34 12C34 16.9706 29.9706 21 25 21C20.0294 21 16 16.9706 16 12C16 7.02944 20.0294 3 25 3C29.9706 3 34 7.02944 34 12Z" fill="white"/>
</g>
<path d="M47 6.75V7.5375" stroke="white" stroke-linecap="round" stroke-linejoin="round"/>
<path fill-rule="evenodd" clip-rule="evenodd" d="M50.7121 8.2876L50.1553 8.84443L50.7121 8.2876Z" fill="white"/>
<path d="M50.7121 8.2876L50.1553 8.84443" stroke="white" stroke-linecap="round" stroke-linejoin="round"/>
<path d="M52.2499 12H51.4624" stroke="white" stroke-linecap="round" stroke-linejoin="round"/>
<path fill-rule="evenodd" clip-rule="evenodd" d="M50.7121 15.7121L50.1553 15.1553L50.7121 15.7121Z" fill="white"/>
<path d="M50.7121 15.7121L50.1553 15.1553" stroke="white" stroke-linecap="round" stroke-linejoin="round"/>
<path d="M47 17.2499V16.4624" stroke="white" stroke-linecap="round" stroke-linejoin="round"/>
<path fill-rule="evenodd" clip-rule="evenodd" d="M43.2876 15.7121L43.8444 15.1553L43.2876 15.7121Z" fill="white"/>
<path d="M43.2876 15.7121L43.8444 15.1553" stroke="white" stroke-linecap="round" stroke-linejoin="round"/>
<path d="M41.75 12H42.5375" stroke="white" stroke-linecap="round" stroke-linejoin="round"/>
<path fill-rule="evenodd" clip-rule="evenodd" d="M43.2876 8.2876L43.8444 8.84443L43.2876 8.2876Z" fill="white"/>
<path d="M43.2876 8.2876L43.8444 8.84443" stroke="white" stroke-linecap="round" stroke-linejoin="round"/>
<path d="M47 15C48.6568 15 50 13.6568 50 12C50 10.3432 48.6568 9 47 9C45.3432 9 44 10.3432 44 12C44 13.6568 45.3432 15 47 15Z" stroke="white" stroke-linejoin="round"/>
<defs>
<filter id="filter0_dii_361_788" x="0" y="0" width="69" height="44" filterUnits="userSpaceOnUse" color-interpolation-filters="sRGB">
<feFlood flood-opacity="0" result="BackgroundImageFix"/>
<feColorMatrix in="SourceAlpha" type="matrix" values="0 0 0 0 0 0 0 0 0 0 0 0 0 0 0 0 0 0 127 0" result="hardAlpha"/>
<feOffset dy="10"/>
<feGaussianBlur stdDeviation="5"/>
<feComposite in2="hardAlpha" operator="out"/>
<feColorMatrix type="matrix" values="0 0 0 0 0 0 0 0 0 0.125 0 0 0 0 0.095 0 0 0 0.25 0"/>
<feBlend mode="normal" in2="BackgroundImageFix" result="effect1_dropShadow_361_788"/>
<feBlend mode="normal" in="SourceGraphic" in2="effect1_dropShadow_361_788" result="shape"/>
<feColorMatrix in="SourceAlpha" type="matrix" values="0 0 0 0 0 0 0 0 0 0 0 0 0 0 0 0 0 0 127 0" result="hardAlpha"/>
<feOffset dy="4"/>
<feGaussianBlur stdDeviation="2"/>
<feComposite in2="hardAlpha" operator="arithmetic" k2="-1" k3="1"/>
<feColorMatrix type="matrix" values="0 0 0 0 0 0 0 0 0 0 0 0 0 0 0 0 0 0 0.25 0"/>
<feBlend mode="normal" in2="shape" result="effect2_innerShadow_361_788"/>
<feColorMatrix in="SourceAlpha" type="matrix" values="0 0 0 0 0 0 0 0 0 0 0 0 0 0 0 0 0 0 127 0" result="hardAlpha"/>
<feOffset dy="4"/>
<feGaussianBlur stdDeviation="2"/>
<feComposite in2="hardAlpha" operator="arithmetic" k2="-1" k3="1"/>
<feColorMatrix type="matrix" values="0 0 0 0 0 0 0 0 0 0 0 0 0 0 0 0 0 0 0.25 0"/>
<feBlend mode="normal" in2="effect2_innerShadow_361_788" result="effect3_innerShadow_361_788"/>
</filter>
<filter id="filter1_ii_361_788" x="16" y="3" width="18" height="22" filterUnits="userSpaceOnUse" color-interpolation-filters="sRGB">
<feFlood flood-opacity="0" result="BackgroundImageFix"/>
<feBlend mode="normal" in="SourceGraphic" in2="BackgroundImageFix" result="shape"/>
<feColorMatrix in="SourceAlpha" type="matrix" values="0 0 0 0 0 0 0 0 0 0 0 0 0 0 0 0 0 0 127 0" result="hardAlpha"/>
<feOffset dy="4"/>
<feGaussianBlur stdDeviation="2"/>
<feComposite in2="hardAlpha" operator="arithmetic" k2="-1" k3="1"/>
<feColorMatrix type="matrix" values="0 0 0 0 0.491667 0 0 0 0 0.491667 0 0 0 0 0.491667 0 0 0 0.25 0"/>
<feBlend mode="normal" in2="shape" result="effect1_innerShadow_361_788"/>
<feColorMatrix in="SourceAlpha" type="matrix" values="0 0 0 0 0 0 0 0 0 0 0 0 0 0 0 0 0 0 127 0" result="hardAlpha"/>
<feOffset dy="4"/>
<feGaussianBlur stdDeviation="2"/>
<feComposite in2="hardAlpha" operator="arithmetic" k2="-1" k3="1"/>
<feColorMatrix type="matrix" values="0 0 0 0 0.741667 0 0 0 0 0.741667 0 0 0 0 0.741667 0 0 0 0.25 0"/>
<feBlend mode="normal" in2="effect1_innerShadow_361_788" result="effect2_innerShadow_361_788"/>
</filter>
</defs>
</svg>
